<?xml version="1.0" encoding="utf-8"?>
<!-- Generator: Adobe Illustrator 25.4.1, SVG Export Plug-In . SVG Version: 6.00 Build 0)  -->
<svg version="1.1" id="Layer_1" xmlns="http://www.w3.org/2000/svg" xmlns:xlink="http://www.w3.org/1999/xlink" x="0px" y="0px"
	 viewBox="0 0 28 28" style="enable-background:new 0 0 28 28;" xml:space="preserve">
<style type="text/css">
	.st0{fill:#5A5A89;}
	.st1{fill:#FF3E3E;}
</style>
<path class="st0" d="M7.6,9.5V4.8c0-0.3-0.3-0.6-0.6-0.6c-0.3,0-0.6,0.3-0.6,0.6v4.7c-1,0.3-1.7,1.2-1.7,2.3c0,1.1,0.7,2,1.7,2.3
	v8.2c0,0.3,0.3,0.6,0.6,0.6c0.3,0,0.6-0.3,0.6-0.6V14c1-0.3,1.7-1.2,1.7-2.3C9.3,10.7,8.6,9.8,7.6,9.5z"/>
<path class="st0" d="M14.6,13.6V4.8c0-0.3-0.3-0.6-0.6-0.6c-0.3,0-0.6,0.3-0.6,0.6v8.8c-1,0.3-1.8,1.2-1.8,2.3c0,1.1,0.7,2,1.8,2.3
	v4.2c0,0.3,0.3,0.6,0.6,0.6c0.3,0,0.6-0.3,0.6-0.6v-4.2c1-0.3,1.7-1.2,1.7-2.3C16.3,14.8,15.6,13.9,14.6,13.6z"/>
<path class="st0" d="M23.3,11.8c0-1.1-0.7-2-1.7-2.3V4.8c0-0.3-0.3-0.6-0.6-0.6c-0.3,0-0.6,0.3-0.6,0.6v4.7c-1,0.3-1.8,1.2-1.8,2.3
	c0,1.1,0.7,2,1.8,2.3v8.2c0,0.3,0.3,0.6,0.6,0.6c0.3,0,0.6-0.3,0.6-0.6V14C22.6,13.8,23.3,12.9,23.3,11.8z"/>
<circle class="st1" cx="25.5" cy="2.5" r="2.5"/>
</svg>
