<svg width="28" height="28" xmlns="http://www.w3.org/2000/svg" xml:space="preserve" version="1.1">

 <g>
  <title>Layer 1</title>
  <path id="svg_1" fill="#5a5a89" d="m7.6,9.59443l0,-4.7c0,-0.3 -0.3,-0.6 -0.6,-0.6c-0.3,0 -0.6,0.3 -0.6,0.6l0,4.7c-1,0.3 -1.7,1.2 -1.7,2.3c0,1.1 0.7,2 1.7,2.3l0,8.2c0,0.3 0.3,0.6 0.6,0.6c0.3,0 0.6,-0.3 0.6,-0.6l0,-8.3c1,-0.3 1.7,-1.2 1.7,-2.3c0,-1 -0.7,-1.9 -1.7,-2.2z" class="st0"/>
  <path id="svg_2" fill="#5a5a89" d="m14.6,13.6l0,-8.8c0,-0.3 -0.3,-0.6 -0.6,-0.6c-0.3,0 -0.6,0.3 -0.6,0.6l0,8.8c-1,0.3 -1.8,1.2 -1.8,2.3c0,1.1 0.7,2 1.8,2.3l0,4.2c0,0.3 0.3,0.6 0.6,0.6c0.3,0 0.6,-0.3 0.6,-0.6l0,-4.2c1,-0.3 1.7,-1.2 1.7,-2.3c0,-1.1 -0.7,-2 -1.7,-2.3z" class="st0"/>
  <path id="svg_3" fill="#5a5a89" d="m23.3,11.8c0,-1.1 -0.7,-2 -1.7,-2.3l0,-4.7c0,-0.3 -0.3,-0.6 -0.6,-0.6c-0.3,0 -0.6,0.3 -0.6,0.6l0,4.7c-1,0.3 -1.8,1.2 -1.8,2.3c0,1.1 0.7,2 1.8,2.3l0,8.2c0,0.3 0.3,0.6 0.6,0.6c0.3,0 0.6,-0.3 0.6,-0.6l0,-8.3c1,-0.2 1.7,-1.1 1.7,-2.2z" class="st0"/>
  <ellipse stroke="null" ry="2.36072" rx="2.3135" id="svg_4" cy="2.43249" cx="25.66194" fill="#0058B9"/>
 </g>
</svg>